<?xml version="1.0" encoding="UTF-8"?>
<svg width="64px" height="64px" viewBox="0 0 64 64" version="1.1" xmlns="http://www.w3.org/2000/svg" xmlns:xlink="http://www.w3.org/1999/xlink">
    <title>img</title>
    <defs>
        <path d="M0.0805384615,3.76498598 L0.621692308,24.0331262 C0.658153846,25.3971121 1.2,26.304528 1.99984615,26.5825 L1.99984615,26.5825 L2.00007692,26.5836449 L4.81730769,28.2310981 L5.12723077,26.9158832 L5.53384615,24.5249579 C6.30138462,23.3306402 6.78369231,21.8180514 6.74723077,20.4469673 L6.74723077,20.4469673 L6.67684615,17.8085234 L9.36738462,1.99480374 L6.20561538,0.178827103 L0.0805384615,3.76498598 Z" id="path-1"></path>
        <radialGradient cx="-55.1011304%" cy="104.290344%" fx="-55.1011304%" fy="104.290344%" r="244.700483%" gradientTransform="translate(-0.551011,1.042903),scale(1.000000,0.331055),translate(0.551011,-1.042903)" id="radialGradient-3">
            <stop stop-color="#BF2A00" offset="0%"></stop>
            <stop stop-color="#E88700" offset="100%"></stop>
        </radialGradient>
        <path d="M0.0110769231,3.74918692 L0.552923077,24.0170981 C0.612461538,26.255986 2.03215385,27.2680421 3.72369231,26.2777383 L3.72369231,26.2777383 C5.41523077,25.2874346 6.73776923,22.6698271 6.678,20.4311682 L6.678,20.4311682 L6.13661538,0.163028037 L0.0110769231,3.74918692 Z" id="path-4"></path>
        <radialGradient cx="-282.847033%" cy="46.1679123%" fx="-282.847033%" fy="46.1679123%" r="350.425474%" gradientTransform="translate(-2.828470,0.461679),scale(1.000000,0.251706),translate(2.828470,-0.461679)" id="radialGradient-6">
            <stop stop-color="#BF2A00" offset="0%"></stop>
            <stop stop-color="#E88700" offset="100%"></stop>
        </radialGradient>
        <path d="M15.9909231,0.202411215 C15.8291538,0.203098131 15.6731538,0.218668224 15.5240769,0.248663551 L15.5240769,0.248663551 L0.0558461538,3.16347664 L11.1535385,22.1280794 L21.3814615,10.3083178 C21.8356154,9.79771028 22.1007692,9.02057944 22.1007692,8.02088785 L22.1007692,8.02088785 C22.1007692,5.35267757 20.2126154,2.10814486 17.8836923,0.773925234 L17.8836923,0.773925234 C17.2107692,0.388565421 16.5747692,0.204700935 16.0103077,0.202411215 L16.0103077,0.202411215 L15.9909231,0.202411215 Z" id="path-7"></path>
        <radialGradient cx="56.1978832%" cy="21.6769028%" fx="56.1978832%" fy="21.6769028%" r="60.1516874%" gradientTransform="translate(0.561979,0.216769),scale(0.994590,1.000000),rotate(34.441823),translate(-0.561979,-0.216769)" id="radialGradient-9">
            <stop stop-color="#BF2A00" offset="0%"></stop>
            <stop stop-color="#E88700" offset="100%"></stop>
        </radialGradient>
        <path d="M31.3638462,0.543350467 L31.3615385,0.539686916 L31.3310769,0.554799065 C31.3188462,0.560981308 31.3061538,0.566705607 31.2936923,0.57288785 L31.2936923,0.57288785 C31.2290769,0.601738318 31.1658462,0.632878505 31.1030769,0.664934579 L31.1030769,0.664934579 C22.3684615,4.9245 12.7017692,6.96028972 2.97392308,6.58454673 L2.97392308,6.58454673 L0.218076923,6.47807477 L22.6550769,44.6282383 L23.8703077,42.2979907 C28.3024615,33.7990093 34.7796923,26.5209065 42.7223077,21.1036589 L42.7223077,21.1036589 C44.2601538,20.2468458 45.2139231,18.3791215 45.2139231,15.7093084 L45.2139231,15.7093084 C45.2139231,10.4163925 41.4687692,3.9804486 36.849,1.33376168 L36.849,1.33376168 C35.508,0.56578972 34.2413077,0.202411215 33.1183846,0.202411215 L33.1183846,0.202411215 C32.4833077,0.202411215 31.8941538,0.318728972 31.3638462,0.543350467" id="path-10"></path>
        <radialGradient cx="35.3962079%" cy="19.70111%" fx="35.3962079%" fy="19.70111%" r="93.4974431%" gradientTransform="translate(0.353962,0.197011),scale(0.987332,1.000000),rotate(24.563136),translate(-0.353962,-0.197011)" id="radialGradient-12">
            <stop stop-color="#FF7D00" offset="0%"></stop>
            <stop stop-color="#FFC12A" offset="100%"></stop>
        </radialGradient>
        <path d="M4.82515385,1.12104673 L4.82538462,1.12035981 L4.80992308,1.12951869 C4.80253846,1.13364019 4.79538462,1.13776168 4.78823077,1.14211215 L4.78823077,1.14211215 L2.15538462,2.67256075 L3.07523077,2.4818271 C1.20346154,4.41664019 0.102461538,7.46608879 0.102461538,11.4405841 L0.102461538,11.4405841 C0.102461538,21.5938879 7.28676923,33.9400561 16.1487692,39.0168224 L16.1487692,39.0168224 C19.6266923,41.0093364 22.8456923,41.5852009 25.4741538,40.9367523 L25.4741538,40.9367523 L25.0566923,41.5455888 L27.4809231,40.1397009 C27.4933846,40.1326028 27.5060769,40.1250467 27.519,40.1177196 L27.519,40.1177196 L27.606,40.0673458 L27.603,40.0673458 C30.4428462,38.3777617 32.1950769,34.8380841 32.1950769,29.8252009 L32.1950769,29.8252009 C32.1950769,19.6718972 25.011,7.32572897 16.1487692,2.24873364 L16.1487692,2.24873364 C13.5733846,0.773696262 11.1392308,0.0746447502 8.98246154,0.0746447502 L8.98246154,0.0746447502 C7.43792308,0.0746447502 6.03623077,0.432757009 4.82515385,1.12104673" id="path-13"></path>
        <radialGradient cx="41.0655431%" cy="18.5297709%" fx="41.0655431%" fy="18.5297709%" r="111.022843%" gradientTransform="translate(0.410655,0.185298),scale(1.000000,0.773858),translate(-0.410655,-0.185298)" id="radialGradient-15">
            <stop stop-color="#FF9100" offset="0%"></stop>
            <stop stop-color="#FFF92A" offset="100%"></stop>
        </radialGradient>
        <path d="M0,11.4641682 C0,21.617472 7.18430769,33.9636402 16.0463077,39.0404065 L16.0463077,39.0404065 C18.6069231,40.5074299 21.0272308,41.2067103 23.1747692,41.2149533 L23.1747692,41.2149533 L23.2509231,41.2149533 C28.4946923,41.1948037 32.0926154,37.0334673 32.0926154,29.848785 L32.0926154,29.848785 C32.0926154,19.6957103 24.9085385,7.34931308 16.0463077,2.27254673 L16.0463077,2.27254673 C13.4704615,0.797051402 11.0367692,0.098 8.87953846,0.098 L8.87953846,0.098 C3.615,0.098 0,4.26208411 0,11.4641682" id="path-16"></path>
        <radialGradient cx="28.1266238%" cy="36.0968288%" fx="28.1266238%" fy="36.0968288%" r="186.696368%" gradientTransform="translate(0.281266,0.360968),scale(1.000000,0.780520),rotate(50.486737),translate(-0.281266,-0.360968)" id="radialGradient-18">
            <stop stop-color="#FF9100" offset="0%"></stop>
            <stop stop-color="#FFF92A" offset="100%"></stop>
            <stop stop-color="#FFF92A" offset="100%"></stop>
        </radialGradient>
        <path d="M0.121846154,10.0729346 C0.121846154,18.9808598 6.42507692,29.8130654 14.2001538,34.2667991 L14.2001538,34.2667991 C21.9754615,38.7209907 28.2784615,35.1105607 28.2784615,26.2026355 L28.2784615,26.2026355 C28.2784615,17.2947103 21.9754615,6.46273364 14.2001538,2.00854206 L14.2001538,2.00854206 C11.9402308,0.713934579 9.80492308,0.100747664 7.91238462,0.100747664 L7.91238462,0.100747664 C3.29353846,0.100747664 0.121846154,3.75399533 0.121846154,10.0729346" id="path-19"></path>
        <radialGradient cx="41.552168%" cy="94.0764137%" fx="41.552168%" fy="94.0764137%" r="107.157076%" gradientTransform="translate(0.415522,0.940764),scale(1.000000,0.780524),translate(-0.415522,-0.940764)" id="radialGradient-21">
            <stop stop-color="#BF2A00" offset="0%"></stop>
            <stop stop-color="#E88700" offset="100%"></stop>
        </radialGradient>
        <path d="M0.121846154,10.0729346 C0.121846154,18.9808598 6.42507692,29.8130654 14.2001538,34.2667991 L14.2001538,34.2667991 C21.9754615,38.7209907 28.2784615,35.1105607 28.2784615,26.2026355 L28.2784615,26.2026355 C28.2784615,17.2947103 21.9754615,6.46273364 14.2001538,2.00854206 L14.2001538,2.00854206 C11.9402308,0.713934579 9.80492308,0.100747664 7.91238462,0.100747664 L7.91238462,0.100747664 C3.29353846,0.100747664 0.121846154,3.75399533 0.121846154,10.0729346 L0.121846154,10.0729346 Z" id="path-22"></path>
        <path d="M0.0812307692,2.10196262 C0.0812307692,3.88084579 1.33984615,6.0441729 2.89246154,6.9335 L2.89246154,6.9335 C4.44507692,7.82305607 5.70369231,7.10179439 5.70369231,5.32314019 L5.70369231,5.32314019 C5.70369231,3.54425701 4.44507692,1.38115888 2.89246154,0.491602804 L2.89246154,0.491602804 C2.44107692,0.233093458 2.01461538,0.110593458 1.63684615,0.110593458 L1.63684615,0.110593458 C0.714461538,0.110593458 0.0812307692,0.840098131 0.0812307692,2.10196262" id="path-24"></path>
        <radialGradient cx="-42.4062642%" cy="16.3755965%" fx="-42.4062642%" fy="16.3755965%" r="267.821277%" gradientTransform="translate(-0.424063,0.163756),scale(1.000000,0.780474),translate(0.424063,-0.163756)" id="radialGradient-26">
            <stop stop-color="#BF2A00" offset="0%"></stop>
            <stop stop-color="#E88700" offset="100%"></stop>
        </radialGradient>
        <path d="M0.121846154,10.0729346 C0.121846154,18.9808598 6.42507692,29.8130654 14.2001538,34.2667991 L14.2001538,34.2667991 C21.9754615,38.7209907 28.2784615,35.1105607 28.2784615,26.2026355 L28.2784615,26.2026355 C28.2784615,17.2947103 21.9754615,6.46273364 14.2001538,2.00854206 L14.2001538,2.00854206 C11.9402308,0.713934579 9.80492308,0.100747664 7.91238462,0.100747664 L7.91238462,0.100747664 C3.29353846,0.100747664 0.121846154,3.75399533 0.121846154,10.0729346" id="path-27"></path>
        <path d="M0.841615385,0.174934579 L0.842076923,0.173331776 L0.143076923,0.601509346 L0.624923077,0.679130841 C0.623769231,0.705920561 0.623307692,0.732939252 0.624230769,0.761331776 L0.624230769,0.761331776 L0.748615385,4.66942523 C0.765461538,5.20567757 1.11230769,5.81680374 1.524,6.04119626 L1.524,6.04119626 L1.39523077,6.57767757 L2.09584615,6.14652336 L2.09423077,6.14606542 C2.26730769,6.06249065 2.37415385,5.84428037 2.36423077,5.52852804 L2.36423077,5.52852804 L2.23984615,1.62066355 C2.22276923,1.08143458 1.87246154,0.465042056 1.45707692,0.244313084 L1.45707692,0.244313084 L1.34492308,0.184551402 C1.24476923,0.131200935 1.15015385,0.106014019 1.06430769,0.106014019 L1.06430769,0.106014019 C0.980538462,0.106014019 0.905307692,0.130056075 0.841615385,0.174934579" id="path-29"></path>
        <radialGradient cx="-102.376614%" cy="77.0385066%" fx="-102.376614%" fy="77.0385066%" r="203.879877%" gradientTransform="translate(-1.023766,0.770385),scale(1.000000,0.343311),rotate(-1.796755),translate(1.023766,-0.770385)" id="radialGradient-31">
            <stop stop-color="#B6236E" offset="0%"></stop>
            <stop stop-color="#F9626B" offset="100%"></stop>
        </radialGradient>
        <path d="M0.12,0.754004673 L0.244384615,4.66209813 C0.261461538,5.2013271 0.612,5.81771963 1.02738462,6.0384486 L1.02738462,6.0384486 L1.13953846,6.09821028 C1.55446154,6.31893925 1.87707692,6.06065888 1.86023077,5.52142991 L1.86023077,5.52142991 L1.73561538,1.61310748 C1.71853846,1.07364953 1.368,0.457485981 0.952846154,0.236757009 L0.952846154,0.236757009 L0.840692308,0.176995327 C0.740076923,0.123415888 0.644769231,0.098 0.558461538,0.0982274389 L0.558461538,0.0982274389 C0.289153846,0.0982274389 0.107307692,0.345518692 0.12,0.754004673" id="path-32"></path>
        <radialGradient cx="22.1766692%" cy="73.4355597%" fx="22.1766692%" fy="73.4355597%" r="325.061125%" gradientTransform="translate(0.221767,0.734356),scale(1.000000,0.286481),rotate(-1.796755),translate(-0.221767,-0.734356)" id="radialGradient-34">
            <stop stop-color="#FF9100" offset="0%"></stop>
            <stop stop-color="#FFF92A" offset="100%"></stop>
        </radialGradient>
    </defs>
    <g id="01---Homepage" stroke="none" stroke-width="1" fill="none" fill-rule="evenodd">
        <g id="@600---BL" transform="translate(-81.000000, -642.000000)">
            <g id="Group-2" transform="translate(24.000000, 614.000000)">
                <g id="img" transform="translate(57.000000, 28.000000)">
                    <circle id="Oval" fill="#F6F6F6" cx="32" cy="32" r="32"></circle>
                    <g id="Group" transform="translate(2.000000, 7.000000)">
                        <g id="Group-51" transform="translate(30.000000, 24.500000) scale(-1, 1) translate(-30.000000, -24.500000) ">
                            <g id="Group-3" transform="translate(42.692308, 17.657402)">
                                <mask id="mask-2" fill="white">
                                    <use xlink:href="#path-1"></use>
                                </mask>
                                <g id="Clip-2"></g>
                                <path d="M0.0805384615,3.76498598 L0.621692308,24.0331262 C0.658153846,25.3971121 1.2,26.304528 1.99984615,26.5825 L1.99984615,26.5825 L2.00007692,26.5836449 L4.81730769,28.2310981 L5.12723077,26.9158832 L5.53384615,24.5249579 C6.30138462,23.3306402 6.78369231,21.8180514 6.74723077,20.4469673 L6.74723077,20.4469673 L6.67684615,17.8085234 L9.36738462,1.99480374 L6.20561538,0.178827103 L0.0805384615,3.76498598 Z" id="Fill-1" fill="url(#radialGradient-3)" mask="url(#mask-2)"></path>
                            </g>
                            <g id="Group-6" transform="translate(45.923077, 19.489178)">
                                <mask id="mask-5" fill="white">
                                    <use xlink:href="#path-4"></use>
                                </mask>
                                <g id="Clip-5"></g>
                                <path d="M0.0110769231,3.74918692 L0.552923077,24.0170981 C0.612461538,26.255986 2.03215385,27.2680421 3.72369231,26.2777383 L3.72369231,26.2777383 C5.41523077,25.2874346 6.73776923,22.6698271 6.678,20.4311682 L6.678,20.4311682 L6.13661538,0.163028037 L0.0110769231,3.74918692 Z" id="Fill-4" fill="url(#radialGradient-6)" mask="url(#mask-5)"></path>
                            </g>
                            <g id="Group-9" transform="translate(37.846154, 0.026561)">
                                <mask id="mask-8" fill="white">
                                    <use xlink:href="#path-7"></use>
                                </mask>
                                <g id="Clip-8"></g>
                                <path d="M15.9909231,0.202411215 C15.8291538,0.203098131 15.6731538,0.218668224 15.5240769,0.248663551 L15.5240769,0.248663551 L0.0558461538,3.16347664 L11.1535385,22.1280794 L21.3814615,10.3083178 C21.8356154,9.79771028 22.1007692,9.02057944 22.1007692,8.02088785 L22.1007692,8.02088785 C22.1007692,5.35267757 20.2126154,2.10814486 17.8836923,0.773925234 L17.8836923,0.773925234 C17.2107692,0.388565421 16.5747692,0.204700935 16.0103077,0.202411215 L16.0103077,0.202411215 L15.9909231,0.202411215 Z" id="Fill-7" fill="url(#radialGradient-9)" mask="url(#mask-8)"></path>
                            </g>
                            <g id="Group-14" transform="translate(42.692308, 1.400393)" fill="#380031">
                                <path d="M6.78106154,1.12496215 C5.58083077,0.437588318 4.4556,0.156181776 3.48106154,0.231055607 L2.69136923,0.379887383 C1.10390769,0.87423785 0.0804461538,2.48803224 0.0804461538,4.96321916 C0.0804461538,9.20286402 3.08044615,14.3583967 6.78106154,16.4784481 C7.6536,16.9782939 8.48644615,17.2622192 9.25098462,17.3524341 L13.4779846,12.4677752 C13.3986,8.26156028 10.4318308,3.21639206 6.78106154,1.12496215" id="Fill-10"></path>
                                <path d="M7.02512308,44.3665463 L7.02512308,44.3665463 C8.71666154,43.3762425 10.0394308,40.758635 9.97966154,38.5199762 L9.52689231,21.5730743 L9.33166154,19.729621 L6.50796923,19.967065 L3.66743077,21.6300883 L3.03327692,20.898065 L0.399276923,21.9559154 L0.307661538,27.3223313 L0.312507692,27.4478079 C0.377353846,29.0735089 1.60827692,30.4189481 3.23266154,30.6399061 L3.54904615,30.6829528 L3.85435385,42.106135 C3.91412308,44.3447939 5.33381538,45.35685 7.02512308,44.3665463" id="Fill-12"></path>
                            </g>
                            <g id="Group-17" transform="translate(9.230769, 0.026561)">
                                <mask id="mask-11" fill="white">
                                    <use xlink:href="#path-10"></use>
                                </mask>
                                <g id="Clip-16"></g>
                                <path d="M31.3638462,0.543350467 L31.3615385,0.539686916 L31.3310769,0.554799065 C31.3188462,0.560981308 31.3061538,0.566705607 31.2936923,0.57288785 L31.2936923,0.57288785 C31.2290769,0.601738318 31.1658462,0.632878505 31.1030769,0.664934579 L31.1030769,0.664934579 C22.3684615,4.9245 12.7017692,6.96028972 2.97392308,6.58454673 L2.97392308,6.58454673 L0.218076923,6.47807477 L22.6550769,44.6282383 L23.8703077,42.2979907 C28.3024615,33.7990093 34.7796923,26.5209065 42.7223077,21.1036589 L42.7223077,21.1036589 C44.2601538,20.2468458 45.2139231,18.3791215 45.2139231,15.7093084 L45.2139231,15.7093084 C45.2139231,10.4163925 41.4687692,3.9804486 36.849,1.33376168 L36.849,1.33376168 C35.508,0.56578972 34.2413077,0.202411215 33.1183846,0.202411215 L33.1183846,0.202411215 C32.4833077,0.202411215 31.8941538,0.318728972 31.3638462,0.543350467" id="Fill-15" fill="url(#radialGradient-12)" mask="url(#mask-11)"></path>
                            </g>
                            <g id="Group-20" transform="translate(2.307692, 6.208804)">
                                <mask id="mask-14" fill="white">
                                    <use xlink:href="#path-13"></use>
                                </mask>
                                <g id="Clip-19"></g>
                                <path d="M4.82515385,1.12104673 L4.82538462,1.12035981 L4.80992308,1.12951869 C4.80253846,1.13364019 4.79538462,1.13776168 4.78823077,1.14211215 L4.78823077,1.14211215 L2.15538462,2.67256075 L3.07523077,2.4818271 C1.20346154,4.41664019 0.102461538,7.46608879 0.102461538,11.4405841 L0.102461538,11.4405841 C0.102461538,21.5938879 7.28676923,33.9400561 16.1487692,39.0168224 L16.1487692,39.0168224 C19.6266923,41.0093364 22.8456923,41.5852009 25.4741538,40.9367523 L25.4741538,40.9367523 L25.0566923,41.5455888 L27.4809231,40.1397009 C27.4933846,40.1326028 27.5060769,40.1250467 27.519,40.1177196 L27.519,40.1177196 L27.606,40.0673458 L27.603,40.0673458 C30.4428462,38.3777617 32.1950769,34.8380841 32.1950769,29.8252009 L32.1950769,29.8252009 C32.1950769,19.6718972 25.011,7.32572897 16.1487692,2.24873364 L16.1487692,2.24873364 C13.5733846,0.773696262 11.1392308,0.0746447502 8.98246154,0.0746447502 L8.98246154,0.0746447502 C7.43792308,0.0746447502 6.03623077,0.432757009 4.82515385,1.12104673" id="Fill-18" fill="url(#radialGradient-15)" mask="url(#mask-14)"></path>
                            </g>
                            <path d="M32.6247462,37.1207972 C32.6247462,26.9677224 25.4406692,14.6213252 16.5784385,9.54455888 C12.2182846,7.04693271 8.26520769,6.77560093 5.37320769,8.3520729 L4.97051538,8.58631121 C4.83274615,8.67263364 4.69843846,8.76468037 4.56620769,8.85993271 L5.3829,8.69072243 C3.51136154,10.6255355 2.4099,13.6747551 2.4099,17.6494794 C2.4099,27.8025542 9.59420769,40.1489514 18.4564385,45.2254888 C21.9343615,47.2180028 25.1533615,47.7938673 27.7818231,47.1454187 L27.4012846,47.7006757 C30.6110538,46.1777832 32.6247462,42.495685 32.6247462,37.1207972" id="Fill-21" fill="#FFFFFF"></path>
                            <g id="Group-25" transform="translate(0.000000, 7.582636)">
                                <mask id="mask-17" fill="white">
                                    <use xlink:href="#path-16"></use>
                                </mask>
                                <g id="Clip-24"></g>
                                <path d="M0,11.4641682 C0,21.617472 7.18430769,33.9636402 16.0463077,39.0404065 L16.0463077,39.0404065 C18.6069231,40.5074299 21.0272308,41.2067103 23.1747692,41.2149533 L23.1747692,41.2149533 L23.2509231,41.2149533 C28.4946923,41.1948037 32.0926154,37.0334673 32.0926154,29.848785 L32.0926154,29.848785 C32.0926154,19.6957103 24.9085385,7.34931308 16.0463077,2.27254673 L16.0463077,2.27254673 C13.4704615,0.797051402 11.0367692,0.098 8.87953846,0.098 L8.87953846,0.098 C3.615,0.098 0,4.26208411 0,11.4641682" id="Fill-23" fill="url(#radialGradient-18)" mask="url(#mask-17)"></path>
                            </g>
                            <g id="Group-28" transform="translate(1.846154, 10.101327)">
                                <mask id="mask-20" fill="white">
                                    <use xlink:href="#path-19"></use>
                                </mask>
                                <g id="Clip-27"></g>
                                <path d="M0.121846154,10.0729346 C0.121846154,18.9808598 6.42507692,29.8130654 14.2001538,34.2667991 L14.2001538,34.2667991 C21.9754615,38.7209907 28.2784615,35.1105607 28.2784615,26.2026355 L28.2784615,26.2026355 C28.2784615,17.2947103 21.9754615,6.46273364 14.2001538,2.00854206 L14.2001538,2.00854206 C11.9402308,0.713934579 9.80492308,0.100747664 7.91238462,0.100747664 L7.91238462,0.100747664 C3.29353846,0.100747664 0.121846154,3.75399533 0.121846154,10.0729346" id="Fill-26" fill="url(#radialGradient-21)" mask="url(#mask-20)"></path>
                            </g>
                            <g id="Group-33" transform="translate(1.846154, 10.101327)">
                                <path d="M16.6101692,33.0468593 C15.4420154,32.3775743 14.3073231,31.5638079 13.2222462,30.6341818 C10.9584,28.6943313 10.7059385,25.2977612 12.6513231,23.0433033 C14.9560154,20.3723453 18.6750923,16.765121 24.4044,12.877864 C21.8394,8.31582664 18.2179385,4.31019112 14.2002462,2.00856495 C10.7742462,0.0458172897 7.63416923,-0.350075234 5.19309231,0.582298598 C5.18686154,0.584588318 5.18086154,0.587107009 5.17463077,0.589625701 C5.08278462,0.624887383 4.99186154,0.662209813 4.90232308,0.701364019 C4.88686154,0.708233178 4.87163077,0.715102336 4.8564,0.721971495 C4.77378462,0.758378037 4.69186154,0.796845327 4.61109231,0.836686449 C4.59586154,0.844242523 4.58086154,0.851569626 4.56586154,0.859125701 C4.47863077,0.903088318 4.39232308,0.948653738 4.30716923,0.996279907 C4.30116923,0.999485514 4.29563077,1.00246215 4.28963077,1.00566776 C4.10178462,1.1114528 3.91901538,1.22639673 3.74155385,1.35004159 C3.73647692,1.35370514 3.73116923,1.35759766 3.72586154,1.36149019 C3.64624615,1.41713037 3.56801538,1.47483131 3.49070769,1.53436402 C3.47547692,1.54604159 3.46047692,1.5581771 3.44524615,1.57008364 C3.37693846,1.62343411 3.30955385,1.67815841 3.24309231,1.73425654 C3.22693846,1.74822383 3.21055385,1.76196215 3.19416923,1.77570047 C3.12563077,1.83477523 3.05824615,1.8954528 2.99155385,1.95750421 C2.98047692,1.96780794 2.9694,1.97788271 2.95832308,1.98818645 C2.80047692,2.1372472 2.6484,2.29432196 2.50232308,2.46009766 C2.49655385,2.46696682 2.49078462,2.47383598 2.48501538,2.4802472 C2.42086154,2.55397617 2.35763077,2.62907897 2.29578462,2.70578458 C2.27986154,2.72501822 2.26463077,2.74493879 2.24916923,2.7644014 C2.19678462,2.8305743 2.14509231,2.89766308 2.09478462,2.9661257 C2.07747692,2.98925187 2.06063077,3.01214907 2.04401538,3.03550421 C1.99370769,3.10488271 1.94432308,3.17563505 1.89586154,3.24753224 C1.88178462,3.26859766 1.86747692,3.28920514 1.85363077,3.31027056 C1.79478462,3.39911168 1.73732308,3.48932664 1.68147692,3.58137336 C1.67893846,3.58549486 1.6764,3.58915841 1.67386154,3.59327991 C1.61363077,3.69334065 1.55478462,3.79546215 1.49755385,3.89941542 C1.49086154,3.91109299 1.48509231,3.9232285 1.47886154,3.9346771 C1.43063077,4.02306028 1.38378462,4.11258832 1.33809231,4.20371916 C1.32378462,4.23234065 1.30970769,4.26164907 1.29563077,4.29049953 C1.25847692,4.3667472 1.22178462,4.44391075 1.18624615,4.52199019 C1.17124615,4.55542009 1.15601538,4.58907897 1.14101538,4.62296682 C1.10663077,4.70035935 1.07363077,4.77889673 1.04086154,4.85857897 C1.02747692,4.89155093 1.01363077,4.92406495 1.00024615,4.95749486 C0.964015385,5.04839673 0.929169231,5.1409014 0.894784615,5.23432196 C0.886938462,5.25584533 0.878630769,5.27691075 0.870784615,5.29866308 C0.828784615,5.4161257 0.788169231,5.53519112 0.749630769,5.65608832 C0.744553846,5.67211636 0.739938462,5.68837336 0.734861538,5.70417243 C0.702553846,5.80720981 0.6714,5.91139206 0.6414,6.01694813 C0.630553846,6.05495748 0.6204,6.09365374 0.609784615,6.13235 C0.586476923,6.21752757 0.563861538,6.30339206 0.542169231,6.39017243 C0.531092308,6.43436402 0.520246154,6.47901355 0.509630769,6.52389206 C0.489784615,6.60838271 0.470630769,6.69378925 0.451707692,6.77988271 C0.442015385,6.82476121 0.432323077,6.86941075 0.423092308,6.9147472 C0.403707692,7.00931262 0.385476923,7.1050229 0.368169231,7.20142009 C0.361476923,7.23805561 0.354323077,7.27423318 0.347630769,7.31132664 C0.324553846,7.44504626 0.302630769,7.58059766 0.283015385,7.71775187 C0.280707692,7.73377991 0.278861538,7.75026589 0.276784615,7.76629393 C0.259476923,7.88742009 0.244015385,8.00969112 0.229707692,8.13333598 C0.2244,8.17913037 0.220015385,8.22538271 0.214938462,8.27140607 C0.205015385,8.36688738 0.195323077,8.46282664 0.186784615,8.55991075 C0.182169231,8.61349019 0.178015385,8.6672986 0.173630769,8.72133598 C0.166476923,8.81406963 0.160246154,8.90771916 0.154476923,9.00182664 C0.151246154,9.05655093 0.148015385,9.11104626 0.145015385,9.16599953 C0.140169231,9.26720514 0.136015385,9.36909766 0.132784615,9.4716771 C0.131169231,9.51976121 0.129092308,9.56761636 0.127938462,9.61592944 C0.124246154,9.76682196 0.121938462,9.91885935 0.121938462,10.0729575 C0.121938462,10.3243687 0.1284,10.5776117 0.138323077,10.8317706 C0.142015385,10.9226724 0.147553846,11.0140322 0.151938462,11.1053921 C0.160015385,11.2746023 0.172015385,11.4433547 0.184707692,11.612107 C0.191630769,11.6998033 0.198323077,11.7872706 0.206169231,11.8754248 C0.223938462,12.0727986 0.244938462,12.2710883 0.268246154,12.469836 C0.275630769,12.5325743 0.281169231,12.5948547 0.289015385,12.657593 C0.320169231,12.9053407 0.356169231,13.1537752 0.395630769,13.4028967 C0.412015385,13.5045603 0.430476923,13.6064528 0.447784615,13.7083453 C0.474553846,13.8638173 0.502246154,14.0192893 0.532015385,14.1752192 C0.555092308,14.2945136 0.5784,14.4138079 0.603092308,14.5331023 C0.632169231,14.6736911 0.663092308,14.8142799 0.694707692,14.9550977 C0.7224,15.0789715 0.749169231,15.2026164 0.778476923,15.3264902 C0.826015385,15.5245509 0.876553846,15.7223827 0.928938462,15.9206724 C0.976707692,16.1029341 1.02770769,16.2851958 1.0794,16.4676864 C1.10801538,16.5679762 1.13616923,16.6682659 1.16593846,16.7685556 C1.21347692,16.929065 1.26286154,17.0895743 1.31363077,17.2498547 C1.34016923,17.3348033 1.36786154,17.4195229 1.39532308,17.5047005 C1.5894,18.1016304 1.80378462,18.6971864 2.03755385,19.2895369 C2.04886154,19.3188453 2.06016923,19.3483827 2.07193846,19.3779201 C2.14809231,19.5695696 2.22701538,19.7607612 2.30732308,19.9517238 C2.32786154,20.0007238 2.34886154,20.0499528 2.36986154,20.0989528 C4.87670769,25.9807846 9.23686154,31.4236771 14.2002462,34.2670509 C18.5317846,36.7484201 22.4057077,36.7257519 24.9882462,34.6796584 C22.6470923,35.327878 19.7488615,34.8447472 16.6101692,33.0468593" id="Fill-29" fill="#380031"></path>
                                <path d="M14.8575462,33.9874533 C7.08223846,29.5334907 0.779007692,18.701285 0.779007692,9.79335981 C0.779007692,5.11569159 2.51785385,1.89978037 5.2947,0.544266355 C2.13754615,1.69347664 0.122007692,5.03600935 0.122007692,10.0729346 C0.122007692,18.9808598 6.42500769,29.8130654 14.2000846,34.267028 C17.8923923,36.3820421 21.2521615,36.6774159 23.7631615,35.451729 C21.3366231,36.3348738 18.2364692,35.9231822 14.8575462,33.9874533" id="Fill-31" fill="#FFFFFF"></path>
                            </g>
                            <g id="Group-36" transform="translate(1.846154, 10.101327)">
                                <mask id="mask-23" fill="white">
                                    <use xlink:href="#path-22"></use>
                                </mask>
                                <g id="Clip-35"></g>
                                <polygon id="Fill-34" fill="#FFFFFF" mask="url(#mask-23)" points="12.0930462 14.798435 32.5202769 -0.872864019 39.9378923 11.8957575 15.9618923 21.6572902"></polygon>
                            </g>
                            <g id="Group-39" transform="translate(13.153846, 24.526561)">
                                <mask id="mask-25" fill="white">
                                    <use xlink:href="#path-24"></use>
                                </mask>
                                <g id="Clip-38"></g>
                                <path d="M0.0812307692,2.10196262 C0.0812307692,3.88084579 1.33984615,6.0441729 2.89246154,6.9335 L2.89246154,6.9335 C4.44507692,7.82305607 5.70369231,7.10179439 5.70369231,5.32314019 L5.70369231,5.32314019 C5.70369231,3.54425701 4.44507692,1.38115888 2.89246154,0.491602804 L2.89246154,0.491602804 C2.44107692,0.233093458 2.01461538,0.110593458 1.63684615,0.110593458 L1.63684615,0.110593458 C0.714461538,0.110593458 0.0812307692,0.840098131 0.0812307692,2.10196262" id="Fill-37" fill="url(#radialGradient-26)" mask="url(#mask-25)"></path>
                            </g>
                            <g id="Group-42" transform="translate(1.846154, 10.101327)">
                                <mask id="mask-28" fill="white">
                                    <use xlink:href="#path-27"></use>
                                </mask>
                                <g id="Clip-41"></g>
                                <path d="M18.999,11.2095514 C20.9582308,12.331972 22.5466154,15.0615467 22.5466154,17.3059299 C22.5466154,18.1400748 22.3271538,18.7892103 21.951,19.2187617 L39.9378462,11.8960093 L32.5202308,-0.873070093 L17.3958462,10.7303131 C17.8774615,10.7259626 18.4218462,10.8789159 18.999,11.2095514" id="Fill-40" fill="#D8D8D8" mask="url(#mask-28)"></path>
                            </g>
                            <g id="Group-45" transform="translate(43.384615, 31.853664)">
                                <mask id="mask-30" fill="white">
                                    <use xlink:href="#path-29"></use>
                                </mask>
                                <g id="Clip-44"></g>
                                <path d="M0.841615385,0.174934579 L0.842076923,0.173331776 L0.143076923,0.601509346 L0.624923077,0.679130841 C0.623769231,0.705920561 0.623307692,0.732939252 0.624230769,0.761331776 L0.624230769,0.761331776 L0.748615385,4.66942523 C0.765461538,5.20567757 1.11230769,5.81680374 1.524,6.04119626 L1.524,6.04119626 L1.39523077,6.57767757 L2.09584615,6.14652336 L2.09423077,6.14606542 C2.26730769,6.06249065 2.37415385,5.84428037 2.36423077,5.52852804 L2.36423077,5.52852804 L2.23984615,1.62066355 C2.22276923,1.08143458 1.87246154,0.465042056 1.45707692,0.244313084 L1.45707692,0.244313084 L1.34492308,0.184551402 C1.24476923,0.131200935 1.15015385,0.106014019 1.06430769,0.106014019 L1.06430769,0.106014019 C0.980538462,0.106014019 0.905307692,0.130056075 0.841615385,0.174934579" id="Fill-43" fill="url(#radialGradient-31)" mask="url(#mask-30)"></path>
                            </g>
                            <path d="M44.8415308,32.0978393 L44.7296077,32.0380776 C44.5316077,31.9329794 44.3553,31.9375589 44.2263,32.0286897 L44.2265308,32.0268579 L43.5277615,32.4552645 L44.0096077,32.532657 C44.0084538,32.5594467 44.0079923,32.5866944 44.0089154,32.6150869 L44.1333,36.5231804 C44.1501462,37.0592037 44.4967615,37.6705589 44.9086846,37.8947224 L44.7799154,38.4314327 L45.4805308,38.0002785 L45.4789154,37.9995916 C45.6519923,37.9162458 45.7588385,37.6980355 45.7489154,37.3822832 L45.6245308,33.4744187 C45.6072231,32.9349607 45.2569154,32.3185682 44.8415308,32.0978393" id="Fill-46" fill="#380031"></path>
                            <g id="Group-50" transform="translate(43.153846, 32.311607)">
                                <mask id="mask-33" fill="white">
                                    <use xlink:href="#path-32"></use>
                                </mask>
                                <g id="Clip-49"></g>
                                <path d="M0.12,0.754004673 L0.244384615,4.66209813 C0.261461538,5.2013271 0.612,5.81771963 1.02738462,6.0384486 L1.02738462,6.0384486 L1.13953846,6.09821028 C1.55446154,6.31893925 1.87707692,6.06065888 1.86023077,5.52142991 L1.86023077,5.52142991 L1.73561538,1.61310748 C1.71853846,1.07364953 1.368,0.457485981 0.952846154,0.236757009 L0.952846154,0.236757009 L0.840692308,0.176995327 C0.740076923,0.123415888 0.644769231,0.098 0.558461538,0.0982274389 L0.558461538,0.0982274389 C0.289153846,0.0982274389 0.107307692,0.345518692 0.12,0.754004673" id="Fill-48" fill="url(#radialGradient-34)" mask="url(#mask-33)"></path>
                            </g>
                        </g>
                    </g>
                </g>
            </g>
        </g>
    </g>
</svg>