<?xml version="1.0" encoding="utf-8"?>
<!-- Generator: Adobe Illustrator 25.2.1, SVG Export Plug-In . SVG Version: 6.00 Build 0)  -->
<svg version="1.0" xmlns="http://www.w3.org/2000/svg" xmlns:xlink="http://www.w3.org/1999/xlink" x="0px" y="0px"
	 viewBox="0 0 80 80" style="enable-background:new 0 0 80 80;" xml:space="preserve">
<style type="text/css">
	.st0{display:none;}
	.st1{display:inline;fill:#0D0A0B;}
	.st2{fill:#0D0A0B;}
</style>
<g id="Layer_2" class="st0">
	<path class="st1" d="M56.02,14.22L39.07,31.17L22.12,14.22c-2.34-2.34-6.14-2.34-8.49,0s-2.34,6.14,0,8.49l16.95,16.95L13.64,56.6
		c-2.34,2.34-2.34,6.14,0,8.49c2.34,2.34,6.14,2.34,8.49,0l16.95-16.95l16.95,16.95c2.34,2.34,6.14,2.34,8.49,0
		c2.34-2.34,2.34-6.14,0-8.49L47.56,39.65L64.5,22.7c2.34-2.34,2.34-6.14,0-8.49C62.16,11.88,58.36,11.88,56.02,14.22z"/>
</g>
<g id="Layer_3">
	<path class="st2" d="M57.74,14.55L39.07,33.21L20.4,14.55c-1.78-1.78-4.66-1.78-6.44,0s-1.78,4.66,0,6.44l18.67,18.67L13.96,58.32
		c-1.78,1.78-1.78,4.66,0,6.44c1.78,1.78,4.66,1.78,6.44,0l18.67-18.67l18.67,18.67c1.78,1.78,4.66,1.78,6.44,0
		c1.78-1.78,1.78-4.66,0-6.44L45.51,39.65l18.67-18.67c1.78-1.78,1.78-4.66,0-6.44C62.4,12.77,59.52,12.77,57.74,14.55z"/>
</g>
</svg>
