<?xml version="1.0" encoding="utf-8"?>
<!-- Generator: Adobe Illustrator 25.2.1, SVG Export Plug-In . SVG Version: 6.00 Build 0)  -->
<svg version="1.0" id="Layer_2" xmlns="http://www.w3.org/2000/svg" xmlns:xlink="http://www.w3.org/1999/xlink" x="0px" y="0px"
	 viewBox="0 0 80 80" style="enable-background:new 0 0 80 80;" xml:space="preserve">
<style type="text/css">
	.st0{fill:none;}
	.st1{fill:#121212;}
</style>
<g>
	<path class="st0" d="M40.13,48.86c-8.37,0-15.16,5.68-15.16,12.69c0,0.97,0.13,1.92,0.38,2.83h0.01c4.31,2.62,9.36,4.13,14.77,4.13
		c5.41,0,10.46-1.51,14.77-4.13h0.01c0.25-0.91,0.38-1.86,0.38-2.83C55.29,54.54,48.5,48.86,40.13,48.86z"/>
	<circle class="st0" cx="40" cy="31.1" r="7.76"/>
	<path class="st0" d="M40.13,11.49c-15.75,0-28.51,12.76-28.51,28.51c0,6.18,1.96,11.9,5.31,16.56c1.96-6.41,7.62-11.59,14.97-13.84
		c-3.66-2.56-6.06-6.81-6.06-11.62c0-7.82,6.34-14.16,14.16-14.16s14.16,6.34,14.16,14.16c0,4.78-2.37,9-5.99,11.56
		c7.44,2.22,13.18,7.43,15.16,13.9c3.35-4.66,5.31-10.38,5.31-16.56C68.64,24.25,55.88,11.49,40.13,11.49z"/>
	<path class="st1" d="M40.13,2.82C19.6,2.82,2.95,19.47,2.95,40c0,12.49,6.17,23.55,15.62,30.29c6.08,4.34,13.52,6.89,21.56,6.89
		s15.48-2.55,21.56-6.89c9.45-6.74,15.62-17.8,15.62-30.29C77.31,19.47,60.66,2.82,40.13,2.82z M54.9,64.38
		c-4.31,2.62-9.36,4.13-14.77,4.13c-5.41,0-10.46-1.51-14.77-4.13h-0.01c-0.25-0.91-0.38-1.86-0.38-2.83
		c0-7.01,6.79-12.69,15.16-12.69s15.16,5.68,15.16,12.69C55.29,62.52,55.16,63.47,54.9,64.38L54.9,64.38z M40,38.86
		c-4.29,0-7.76-3.48-7.76-7.76c0-4.29,3.47-7.76,7.76-7.76s7.76,3.47,7.76,7.76C47.76,35.38,44.29,38.86,40,38.86z M63.33,56.56
		c-1.98-6.47-7.72-11.68-15.16-13.9c3.62-2.56,5.99-6.78,5.99-11.56c0-7.82-6.34-14.16-14.16-14.16S25.84,23.28,25.84,31.1
		c0,4.81,2.4,9.06,6.06,11.62c-7.35,2.25-13.01,7.43-14.97,13.84C13.58,51.9,11.62,46.18,11.62,40c0-15.75,12.76-28.51,28.51-28.51
		S68.64,24.25,68.64,40C68.64,46.18,66.68,51.9,63.33,56.56z"/>
</g>
</svg>
