<?xml version="1.0" encoding="UTF-8"?>
<svg width="20px" height="12px" viewBox="0 0 20 12" version="1.1" xmlns="http://www.w3.org/2000/svg" xmlns:xlink="http://www.w3.org/1999/xlink">
    <title>USER ICON</title>
    <g id="01---Homepage" stroke="none" stroke-width="1" fill="none" fill-rule="evenodd">
        <g id="@360---balance-hidden" transform="translate(-314.000000, -252.000000)" fill="#FFFFFF">
            <g id="nav-drawer" transform="translate(64.000000, 86.000000)">
                <g id="my-account" transform="translate(0.000000, 80.000000)">
                    <g id="balance" transform="translate(24.000000, 63.000000)">
                        <g id="USER-ICON" transform="translate(224.000000, 17.000000)">
                            <path d="M11.8868,15.9638 C8.7428,15.9638 6.1748,13.8278 4.7548,12.3218 C4.5758,12.1318 4.5758,11.8368 4.7558,11.6478 C6.1818,10.1418 8.7598,7.9998 11.8868,7.9998 C15.0308,7.9998 17.5988,10.1348 19.0188,11.6408 C19.1978,11.8298 19.1978,12.1258 19.0178,12.3148 C17.5918,13.8208 15.0138,15.9638 11.8868,15.9638 M11.8868,5.9998 C6.6968,5.9998 3.0018,10.4758 2.1008,11.6838 C1.9668,11.8628 1.9668,12.0988 2.1008,12.2778 C3.0018,13.4858 6.6968,17.9638 11.8868,17.9638 C17.0768,17.9638 20.7718,13.4858 21.6728,12.2778 C21.8068,12.0988 21.8068,11.8628 21.6728,11.6838 C20.7718,10.4758 17.0768,5.9998 11.8868,5.9998 M11.8938,13.4808 C11.0668,13.4808 10.3938,12.8078 10.3938,11.9808 C10.3938,11.1538 11.0668,10.4808 11.8938,10.4808 C12.7208,10.4808 13.3938,11.1538 13.3938,11.9808 C13.3938,12.8078 12.7208,13.4808 11.8938,13.4808 M11.8938,8.9808 C10.2378,8.9808 8.8938,10.3238 8.8938,11.9808 C8.8938,13.6378 10.2378,14.9808 11.8938,14.9808 C13.5508,14.9808 14.8938,13.6378 14.8938,11.9808 C14.8938,10.3238 13.5508,8.9808 11.8938,8.9808" id="Shape"></path>
                        </g>
                    </g>
                </g>
            </g>
        </g>
    </g>
</svg>