<?xml version="1.0" encoding="UTF-8"?>
<svg width="20px" height="14px" viewBox="0 0 20 14" version="1.1" xmlns="http://www.w3.org/2000/svg" xmlns:xlink="http://www.w3.org/1999/xlink">
    <title>USER ICON</title>
    <g id="01---Homepage" stroke="none" stroke-width="1" fill="none" fill-rule="evenodd">
        <g id="@360---Nav-drawer-AL" transform="translate(-314.000000, -251.000000)" fill="#FFFFFF">
            <g id="nav-drawer" transform="translate(64.000000, 86.000000)">
                <g id="my-account" transform="translate(0.000000, 80.000000)">
                    <g id="balance" transform="translate(24.000000, 63.000000)">
                        <g id="USER-ICON" transform="translate(224.000000, 17.000000)">
                            <path d="M21.6734,11.4517 C20.7714,10.2437 17.0774,5.7677 11.8864,5.7677 C10.8184,5.7677 9.8184,5.9647 8.8874,6.2767 L10.5264,7.9147 C10.9674,7.8277 11.4194,7.7677 11.8864,7.7677 C15.0294,7.7677 17.5984,9.9037 19.0184,11.4087 C19.1974,11.5977 19.1964,11.8937 19.0174,12.0827 C18.4274,12.7057 17.6314,13.4327 16.6894,14.0777 L18.1344,15.5227 C19.9544,14.2087 21.2004,12.6797 21.6734,12.0467 C21.8074,11.8677 21.8064,11.6307 21.6734,11.4517 L21.6734,11.4517 Z M11.8934,8.7487 C11.7284,8.7487 11.5684,8.7717 11.4094,8.7977 L14.8444,12.2337 C14.8714,12.0757 14.8934,11.9147 14.8934,11.7487 C14.8934,10.0927 13.5504,8.7487 11.8934,8.7487 L11.8934,8.7487 Z M12.3634,14.7017 L8.9414,11.2797 C8.9174,11.4327 8.8934,11.5877 8.8934,11.7487 C8.8934,13.4057 10.2364,14.7487 11.8934,14.7487 C12.0544,14.7487 12.2094,14.7257 12.3634,14.7017 L12.3634,14.7017 Z M11.8864,15.7317 C8.7434,15.7317 6.1754,13.5957 4.7554,12.0897 C4.5764,11.9007 4.5764,11.6047 4.7564,11.4157 C5.3454,10.7927 6.1424,10.0667 7.0844,9.4217 L5.6384,7.9767 C3.8194,9.2897 2.5734,10.8187 2.1004,11.4517 C1.9664,11.6307 1.9664,11.8677 2.1004,12.0467 C3.0024,13.2547 6.6964,17.7317 11.8864,17.7317 C12.9554,17.7317 13.9554,17.5347 14.8854,17.2237 L13.2474,15.5847 C12.8054,15.6717 12.3544,15.7317 11.8864,15.7317 L11.8864,15.7317 Z M6.4174,5.2197 C6.1244,4.9267 5.6494,4.9267 5.3564,5.2197 C5.0634,5.5127 5.0634,5.9877 5.3564,6.2807 L17.3564,18.2807 C17.5034,18.4267 17.6944,18.4997 17.8864,18.4997 C18.0794,18.4997 18.2704,18.4267 18.4174,18.2807 C18.7104,17.9877 18.7104,17.5127 18.4174,17.2197 L6.4174,5.2197 Z" id="Shape"></path>
                        </g>
                    </g>
                </g>
            </g>
        </g>
    </g>
</svg>