<?xml version="1.0" encoding="utf-8"?>
<!-- Generator: Adobe Illustrator 25.2.1, SVG Export Plug-In . SVG Version: 6.00 Build 0)  -->
<svg version="1.1" id="Layer_2_1_" xmlns="http://www.w3.org/2000/svg" xmlns:xlink="http://www.w3.org/1999/xlink" x="0px" y="0px"
	 viewBox="0 0 80 80" style="enable-background:new 0 0 80 80;" xml:space="preserve">
<style type="text/css">
	.st0{fill:#FFFFFF;}
</style>
<g>
	<path class="st0" d="M25.3,64.4c-0.3-0.9-0.4-1.8-0.4-2.8C24.9,62.5,25.1,63.5,25.3,64.4z"/>
	<path class="st0" d="M53.8,56c0.1,0.2,0.2,0.3,0.3,0.5c0,0,0-0.1-0.1-0.1c-0.1-0.3-0.3-0.6-0.5-0.8c-0.1-0.1-0.2-0.3-0.3-0.4
		c-0.4-0.6-0.9-1.2-1.5-1.7c-0.1-0.1-0.3-0.3-0.4-0.4c-0.1-0.1-0.2-0.2-0.3-0.3c-0.4-0.4-0.8-0.7-1.3-1c-0.2-0.2-0.5-0.3-0.7-0.5
		c0,0,0,0,0,0c-0.2-0.2-0.5-0.3-0.8-0.4c-0.3-0.1-0.5-0.3-0.8-0.4c-0.4-0.2-0.9-0.4-1.3-0.5c-0.3-0.1-0.5-0.2-0.8-0.3
		c-0.2,0-0.3-0.1-0.5-0.1c0.1,0,0.3,0.1,0.4,0.1c0.2,0,0.3,0.1,0.5,0.2c0,0,0,0,0,0C49.3,51,52.2,53.2,53.8,56
		C53.8,56,53.8,56,53.8,56z"/>
	<path class="st0" d="M54.2,56.8c0.1,0.2,0.2,0.5,0.3,0.7c-0.1-0.2-0.1-0.3-0.2-0.5c-0.1-0.1-0.1-0.3-0.2-0.4c0,0,0,0,0,0
		c0,0,0,0,0,0C54.1,56.6,54.1,56.7,54.2,56.8z"/>
	<path class="st0" d="M34.5,36.6c0.5,0.5,1.1,1,1.8,1.3C35.6,37.6,35,37.1,34.5,36.6z"/>
	<path class="st0" d="M43.7,37.9c0.7-0.4,1.3-0.8,1.8-1.3C45,37.1,44.4,37.6,43.7,37.9z"/>
	<path class="st0" d="M34.5,36.6c0.5,0.5,1.1,1,1.8,1.3C35.6,37.5,35,37.1,34.5,36.6z M34.5,36.6c0.5,0.5,1.1,1,1.8,1.3
		C35.6,37.5,35,37.1,34.5,36.6z M54.8,58.5c0,0,0-0.1,0-0.1c0.1,0.2,0.1,0.4,0.2,0.7C55,58.8,54.9,58.7,54.8,58.5z M40.1,2.8
		C19.6,2.8,3,19.5,3,40c0,12.5,6.2,23.5,15.6,30.3c6.1,4.3,13.5,6.9,21.6,6.9c8.1,0,15.5-2.5,21.6-6.9c9.5-6.7,15.6-17.8,15.6-30.3
		C77.3,19.5,60.7,2.8,40.1,2.8z M55.3,62.4c0,0.2,0,0.4-0.1,0.6c0,0.2-0.1,0.5-0.1,0.7s-0.1,0.5-0.2,0.7c-4.3,2.6-9.4,4.1-14.8,4.1
		c-5.4,0-10.5-1.5-14.8-4.1c-0.2-0.9-0.4-1.9-0.4-2.8c0-7,6.8-12.7,15.2-12.7c0.3,0,0.5,0,0.8,0c0.3,0,0.6,0,1,0.1h0
		c0.3,0,0.6,0.1,0.9,0.1c0.4,0.1,0.8,0.1,1.2,0.2c0.3,0.1,0.6,0.1,0.9,0.2c0.3,0.1,0.6,0.2,0.9,0.3c0,0,0,0,0,0
		c0.1,0,0.3,0.1,0.4,0.1c0.4,0.2,0.9,0.3,1.3,0.5c0.3,0.1,0.5,0.3,0.8,0.4c0.3,0.1,0.5,0.3,0.8,0.4c0,0,0,0,0,0
		c0.2,0.2,0.5,0.3,0.7,0.5c0.4,0.3,0.9,0.6,1.3,1c0.1,0.1,0.2,0.2,0.3,0.3c0.1,0.1,0.3,0.3,0.4,0.4c0.5,0.5,1,1.1,1.5,1.7
		c0.1,0.1,0.2,0.3,0.3,0.4c0.1,0.1,0.2,0.3,0.3,0.4c0,0,0,0,0,0c0.1,0.1,0.1,0.3,0.2,0.4c0,0,0,0.1,0.1,0.1c0,0.1,0.1,0.1,0.1,0.2
		c0,0.1,0.1,0.2,0.1,0.2c0.1,0.2,0.1,0.3,0.2,0.5c0.1,0.2,0.2,0.4,0.2,0.6c0,0.1,0.1,0.2,0.1,0.3c0,0,0,0,0,0
		c0.1,0.2,0.1,0.4,0.2,0.7c0.2,0.8,0.3,1.7,0.3,2.6V62.4z M47.5,32.7c0,0.2-0.1,0.5-0.2,0.8c-0.1,0.5-0.3,1-0.6,1.4
		c-0.1,0.2-0.2,0.4-0.4,0.6s-0.3,0.4-0.5,0.6c-0.2,0.2-0.3,0.4-0.5,0.5c-0.1,0.2-0.3,0.5-0.6,0.7c0,0,0,0,0,0
		c-0.1,0.1-0.2,0.1-0.2,0.2c-0.1,0.1-0.2,0.1-0.3,0.2c0,0,0,0,0,0c-0.1,0.1-0.3,0.2-0.4,0.2c-1,0.5-2,0.9-3.2,0.9h-1
		c-1.2-0.1-2.2-0.4-3.2-0.9c-0.7-0.4-1.3-0.8-1.8-1.3c-0.2-0.2-0.3-0.4-0.5-0.5c-0.2-0.2-0.3-0.4-0.5-0.6c-0.1-0.2-0.3-0.4-0.4-0.6
		c-0.2-0.4-0.4-0.9-0.6-1.4c-0.1-0.2-0.1-0.5-0.2-0.8c-0.1-0.5-0.2-1-0.2-1.6c0-4.3,3.5-7.8,7.8-7.8c4.3,0,7.8,3.5,7.8,7.8
		C47.7,31.6,47.6,32.2,47.5,32.7z M63.3,56.6c-2-6.5-7.7-11.7-15.2-13.9c3.6-2.6,6-6.8,6-11.6c0-7.8-6.3-14.2-14.2-14.2
		c-7.9,0-14.2,6.3-14.2,14.2c0,4.8,2.4,9.1,6.1,11.6c-7.4,2.2-13,7.4-15,13.8c-3.3-4.7-5.3-10.4-5.3-16.6
		c0-15.8,12.8-28.5,28.5-28.5S68.6,24.2,68.6,40C68.6,46.2,66.7,51.9,63.3,56.6z M34.5,36.6c0.5,0.5,1.1,1,1.8,1.3
		C35.6,37.5,35,37.1,34.5,36.6z"/>
</g>
</svg>
